<svg id="Layer_1" data-name="Layer 1" xmlns="http://www.w3.org/2000/svg" viewBox="0 0 1000.3 1000.2"><defs><style>.cls-1{fill:#263238;}.cls-2{fill:#fff;}</style></defs><rect class="cls-1" x="0.3" y="0.2" width="1000" height="1000" rx="191.47"/><g id="Rectangle_2_copy" data-name="Rectangle 2 copy"><path class="cls-2" d="M238.36,119.17,500.05,381.06,871.88,9A185,185,0,0,0,814.27-.2H184.83A184.89,184.89,0,0,0,128,8.71C161.18,41.89,196.39,77.17,238.36,119.17ZM129.56,248.89,8.66,127.9a185,185,0,0,0-9,57V814.37a187.11,187.11,0,0,0,9.16,58.24l372-372.26Zm-.09,741.61a201.13,201.13,0,0,0,55.36,9H814.27A196.12,196.12,0,0,0,871,991.33L500.05,619.65ZM990.68,128.65,619.25,500.35,990,871.37a219.53,219.53,0,0,0,9.4-57V184.93A184.91,184.91,0,0,0,990.68,128.65Z" transform="translate(0.3 0.2)"/></g></svg>