<svg version="1.1" id="Layer_1" xmlns="http://www.w3.org/2000/svg" xmlns:xlink="http://www.w3.org/1999/xlink" x="0px" y="0px"
	 width="100%" viewBox="0 0 606 496" enable-background="new 0 0 606 496" xml:space="preserve">
<path fill="#F7D147" opacity="1.000000" stroke="none" 
	d="
M317.000000,497.000000 
	C211.357178,497.000000 106.214371,497.000000 1.035777,497.000000 
	C1.035777,331.728027 1.035777,166.456039 1.035777,1.092022 
	C202.892807,1.092022 404.785675,1.092022 606.839233,1.092022 
	C606.839233,166.333206 606.839233,331.666595 606.839233,497.000000 
	C510.456055,497.000000 413.978027,497.000000 317.000000,497.000000 
M210.793106,367.499817 
	C210.793106,300.390350 210.793106,233.280869 210.793106,165.613403 
	C229.721756,165.613403 248.099152,165.613403 266.997589,165.613403 
	C266.417572,164.391800 266.225464,163.785217 265.878540,163.286270 
	C258.463104,152.621399 251.124496,141.900146 243.486832,131.396423 
	C242.484451,130.017883 239.938675,129.107697 238.098633,129.092667 
	C218.268250,128.930527 198.436035,128.991547 178.604324,128.991531 
	C176.666046,128.991531 174.727768,128.991531 172.558624,128.991531 
	C172.463745,130.538727 172.352234,131.509598 172.352112,132.480469 
	C172.343765,198.808365 172.327637,265.136292 172.424713,331.464050 
	C172.427628,333.460480 173.195389,335.747009 174.328140,337.405426 
	C185.505432,353.769623 196.828186,370.034515 208.144119,386.303650 
	C208.700287,387.103271 209.575195,387.681152 210.793076,388.822998 
	C210.793076,381.484711 210.793076,374.992188 210.793106,367.499817 
M350.406433,382.750732 
	C357.835724,393.400818 365.356567,403.989014 372.627625,414.746063 
	C374.367950,417.320770 376.319427,417.987915 379.233185,417.972656 
	C399.390564,417.867035 419.548798,417.922333 439.706757,417.905457 
	C441.145721,417.904236 442.584534,417.740387 444.061310,417.649811 
	C444.164734,416.220215 444.298828,415.230530 444.298981,414.240845 
	C444.309326,347.936188 444.328644,281.631500 444.220917,215.327011 
	C444.217438,213.183411 443.354431,210.735626 442.133698,208.947357 
	C431.246582,192.998413 420.192169,177.163574 409.172607,161.305176 
	C408.463745,160.285110 407.634705,159.348572 405.931061,157.199234 
	C405.931061,232.720016 405.931061,306.847443 405.931061,381.141449 
	C388.614929,381.141449 371.958801,381.117218 355.302979,381.178406 
	C353.609619,381.184601 351.918182,381.704529 350.406433,382.750732 
M350.844116,241.500046 
	C350.844116,213.408905 350.844116,185.317764 350.844116,156.619537 
	C369.255798,156.619537 387.096710,156.619537 405.930847,156.619537 
	C400.239014,148.386673 394.977142,141.148712 390.152588,133.630157 
	C387.945770,130.191040 385.570801,128.823090 381.349792,128.878067 
	C361.199707,129.140472 341.044342,128.995636 320.890839,128.995636 
	C317.931244,128.995636 314.971649,128.995636 311.857544,128.995636 
	C311.717407,130.392044 311.535065,131.364273 311.534576,132.336609 
	C311.519012,163.316360 311.476105,194.296326 311.619049,225.275406 
	C311.628815,227.399429 312.641479,229.797302 313.877075,231.593689 
	C325.007019,247.775314 336.285950,263.854523 347.541168,279.949829 
	C348.326782,281.073303 349.271759,282.085388 350.844116,284.006256 
	C350.844116,269.387146 350.844116,255.943604 350.844116,241.500046 
M296.132599,305.343842 
	C286.396515,291.400726 276.660400,277.457611 266.924316,263.514526 
	C266.580841,263.660461 266.237335,263.806366 265.893860,263.952301 
	C265.893860,305.856018 265.893860,347.759705 265.893860,390.088928 
	C247.586441,390.088928 229.691650,390.088928 210.789536,390.088928 
	C216.775299,398.726135 222.336136,406.541046 227.639832,414.526703 
	C229.296066,417.020447 231.074265,418.005157 234.107697,417.987305 
	C256.271515,417.856720 278.436462,417.921844 300.601044,417.905304 
	C302.040710,417.904236 303.480255,417.738739 305.194580,417.632721 
	C305.194580,415.402863 305.194611,413.582855 305.194611,411.762848 
	C305.194611,385.598633 304.754517,359.423401 305.409790,333.275604 
	C305.674255,322.723083 303.807007,313.659729 296.132599,305.343842 
z"/>
<path fill="#22211F" opacity="1.000000" stroke="none" 
	d="
M210.793091,367.999756 
	C210.793076,374.992188 210.793076,381.484711 210.793076,388.822998 
	C209.575195,387.681152 208.700287,387.103271 208.144119,386.303650 
	C196.828186,370.034515 185.505432,353.769623 174.328140,337.405426 
	C173.195389,335.747009 172.427628,333.460480 172.424713,331.464050 
	C172.327637,265.136292 172.343765,198.808365 172.352112,132.480469 
	C172.352234,131.509598 172.463745,130.538727 172.558624,128.991531 
	C174.727768,128.991531 176.666046,128.991531 178.604324,128.991531 
	C198.436035,128.991547 218.268250,128.930527 238.098633,129.092667 
	C239.938675,129.107697 242.484451,130.017883 243.486832,131.396423 
	C251.124496,141.900146 258.463104,152.621399 265.878540,163.286270 
	C266.225464,163.785217 266.417572,164.391800 266.997589,165.613403 
	C248.099152,165.613403 229.721756,165.613403 210.793106,165.613403 
	C210.793106,233.280869 210.793106,300.390350 210.793091,367.999756 
z"/>
<path fill="#1F1F1E" opacity="1.000000" stroke="none" 
	d="
M350.316132,382.368408 
	C351.918182,381.704529 353.609619,381.184601 355.302979,381.178406 
	C371.958801,381.117218 388.614929,381.141449 405.931061,381.141449 
	C405.931061,306.847443 405.931061,232.720016 405.931061,157.199234 
	C407.634705,159.348572 408.463745,160.285110 409.172607,161.305176 
	C420.192169,177.163574 431.246582,192.998413 442.133698,208.947357 
	C443.354431,210.735626 444.217438,213.183411 444.220917,215.327011 
	C444.328644,281.631500 444.309326,347.936188 444.298981,414.240845 
	C444.298828,415.230530 444.164734,416.220215 444.061310,417.649811 
	C442.584534,417.740387 441.145721,417.904236 439.706757,417.905457 
	C419.548798,417.922333 399.390564,417.867035 379.233185,417.972656 
	C376.319427,417.987915 374.367950,417.320770 372.627625,414.746063 
	C365.356567,403.989014 357.835724,393.400818 350.316132,382.368408 
z"/>
<path fill="#20201E" opacity="1.000000" stroke="none" 
	d="
M350.844116,242.000061 
	C350.844116,255.943604 350.844116,269.387146 350.844116,284.006256 
	C349.271759,282.085388 348.326782,281.073303 347.541168,279.949829 
	C336.285950,263.854523 325.007019,247.775314 313.877075,231.593689 
	C312.641479,229.797302 311.628815,227.399429 311.619049,225.275406 
	C311.476105,194.296326 311.519012,163.316360 311.534576,132.336609 
	C311.535065,131.364273 311.717407,130.392044 311.857544,128.995636 
	C314.971649,128.995636 317.931244,128.995636 320.890839,128.995636 
	C341.044342,128.995636 361.199707,129.140472 381.349792,128.878067 
	C385.570801,128.823090 387.945770,130.191040 390.152588,133.630157 
	C394.977142,141.148712 400.239014,148.386673 405.930847,156.619537 
	C387.096710,156.619537 369.255798,156.619537 350.844116,156.619537 
	C350.844116,185.317764 350.844116,213.408905 350.844116,242.000061 
z"/>
<path fill="#1F1F1E" opacity="1.000000" stroke="none" 
	d="
M296.347504,305.633026 
	C303.807007,313.659729 305.674255,322.723083 305.409790,333.275604 
	C304.754517,359.423401 305.194611,385.598633 305.194611,411.762848 
	C305.194611,413.582855 305.194580,415.402863 305.194580,417.632721 
	C303.480255,417.738739 302.040710,417.904236 300.601044,417.905304 
	C278.436462,417.921844 256.271515,417.856720 234.107697,417.987305 
	C231.074265,418.005157 229.296066,417.020447 227.639832,414.526703 
	C222.336136,406.541046 216.775299,398.726135 210.789536,390.088928 
	C229.691650,390.088928 247.586441,390.088928 265.893860,390.088928 
	C265.893860,347.759705 265.893860,305.856018 265.893860,263.952301 
	C266.237335,263.806366 266.580841,263.660461 266.924316,263.514526 
	C276.660400,277.457611 286.396515,291.400726 296.347504,305.633026 
z"/>
</svg>